<svg width="273" height="109" viewBox="0 0 273 109" fill="none" xmlns="http://www.w3.org/2000/svg">
<g filter="url(#filter0_d_359_423)">
<rect x="4" width="265" height="101" rx="10" fill="white"/>
<g clip-path="url(#clip0_359_423)">
<mask id="mask0_359_423" style="mask-type:luminance" maskUnits="userSpaceOnUse" x="26" y="25" width="222" height="51">
<path d="M248 25H26V76H248V25Z" fill="white"/>
</mask>
<g mask="url(#mask0_359_423)">
<path d="M206.035 70.0627L206.307 68.6925H207.626L207.354 70.0627H206.035Z" fill="#010101"/>
<path d="M211 70.2149C209.798 70.2149 208.983 69.5298 208.983 68.1596C208.983 66.9417 209.332 65.6477 210.38 64.9626C210.961 64.582 211.621 64.4678 212.279 64.4678C212.745 64.4678 213.21 64.5059 213.714 64.5439L213.559 65.4954C213.171 65.4574 212.784 65.4193 212.357 65.4193C210.806 65.4193 210.263 66.5992 210.263 68.0074C210.263 68.6925 210.573 69.3014 211.504 69.3014C212.009 69.3014 212.745 69.1492 213.21 68.997L213.055 69.9103C212.434 70.0626 211.698 70.2149 211 70.2149Z" fill="#010101"/>
<path d="M218.136 69.6439C217.632 70.0246 217.05 70.2149 216.236 70.2149C214.762 70.2149 213.792 69.5678 213.792 68.0835C213.792 66.9037 214.18 65.7238 215.072 65.0387C215.537 64.6582 216.158 64.4678 216.973 64.4678C218.447 64.4678 219.416 65.1149 219.416 66.5991C219.416 67.779 219.028 68.9589 218.136 69.6439ZM216.895 65.3813C215.421 65.3813 215.072 66.9417 215.072 68.0074C215.072 68.8827 215.537 69.3014 216.352 69.3014C217.865 69.3014 218.175 67.741 218.175 66.6753C218.175 65.7999 217.71 65.3813 216.895 65.3813Z" fill="#010101"/>
<path d="M227.677 70.0627L228.258 66.7515C228.297 66.5993 228.297 66.4471 228.297 66.2948C228.297 65.6859 227.871 65.4575 227.29 65.4575C226.785 65.4575 226.281 65.6097 225.661 65.8381C225.699 65.9523 225.699 66.0664 225.699 66.1806C225.699 66.3328 225.661 66.5232 225.622 66.6754L225.001 70.1008H223.799L224.38 66.7896C224.419 66.6373 224.419 66.4851 224.419 66.3328C224.419 65.7239 223.993 65.4955 223.45 65.4955C222.984 65.4955 222.48 65.6478 221.937 65.8381L221.161 70.1388H219.959L220.928 64.6583H221.937V64.9627C222.635 64.7343 223.333 64.506 223.954 64.506C224.536 64.506 225.04 64.6963 225.35 65.0769C226.397 64.7343 227.134 64.506 227.755 64.506C228.685 64.506 229.461 65.0008 229.461 65.9523C229.461 66.1806 229.422 66.409 229.383 66.6373L228.763 70.1008H227.677V70.0627Z" fill="#010101"/>
<path d="M230.469 70.0627L230.741 68.6925H232.06L231.788 70.0627H230.469Z" fill="#010101"/>
<path d="M236.985 70.0626L237.024 69.7581C236.325 69.9865 235.706 70.2149 235.046 70.2149C233.999 70.2149 233.34 69.644 233.34 68.6925C233.34 67.6268 234.038 66.7895 235.667 66.7895C236.209 66.7895 236.752 66.8276 237.373 66.8656L237.412 66.6373C237.45 66.485 237.45 66.3328 237.45 66.2186C237.45 65.4954 236.675 65.3432 235.783 65.3432C235.357 65.3432 234.852 65.3813 234.464 65.4193L234.62 64.5059C235.046 64.4678 235.628 64.3917 236.171 64.3917C237.295 64.3917 238.692 64.6581 238.692 65.9141C238.692 66.1805 238.653 66.485 238.575 66.8276L237.993 70.0246H236.985V70.0626ZM237.218 67.6649C236.791 67.6268 236.287 67.5888 235.822 67.5888C234.969 67.5888 234.542 67.9313 234.542 68.6164C234.542 69.073 234.814 69.3776 235.473 69.3776C235.938 69.3776 236.481 69.2253 237.024 69.073L237.218 67.6649Z" fill="#010101"/>
<path d="M243.657 70.0627V69.7963C242.958 70.0246 242.26 70.2149 241.64 70.2149C240.709 70.2149 239.933 69.7201 239.933 68.7686C239.933 68.5403 239.972 68.312 240.01 68.0836L240.631 64.6201H241.833L241.252 67.9313C241.213 68.0836 241.213 68.2358 241.213 68.3881C241.213 68.997 241.64 69.2254 242.221 69.2254C242.687 69.2254 243.152 69.0732 243.734 68.8828L244.509 64.5821H245.711L244.742 70.0627H243.657Z" fill="#010101"/>
<path d="M75.3719 60.4717C75.0616 58.8732 74.2859 57.6172 73.1224 56.9322C72.2691 56.4374 71.222 56.209 70.2911 56.3232H67.8089C67.7314 54.0777 65.831 52.2889 63.5427 52.2889C61.2544 52.2889 59.354 54.0777 59.2765 56.3232H45.3918C45.3142 54.0777 43.4138 52.2889 41.1255 52.2889C38.8373 52.2889 36.9368 54.0777 36.8592 56.3232H34.8813C34.2996 56.3232 33.7953 55.8665 33.7565 55.2575C33.4075 50.3098 36.7817 48.7112 38.7985 48.2165L39.1087 48.1403C41.5909 47.5314 41.6685 47.4934 43.6465 46.2754C44.461 45.7806 45.702 44.9814 47.7576 43.8015C52.8771 40.8329 64.0081 42.2791 67.266 42.7739C67.5763 42.812 67.8089 43.0784 67.8089 43.3829V43.459C67.8089 44.4105 68.0029 45.362 68.4295 46.2374L70.7953 51.3754C70.9116 51.6799 71.1832 51.8702 71.4547 51.9843C71.7649 52.0986 72.0752 52.0986 72.3854 51.9463C72.6957 51.8322 72.8897 51.5657 73.006 51.2993C73.1224 50.9948 73.1224 50.6903 72.9672 50.3859L70.6014 45.2478C70.3299 44.6769 70.2135 44.0679 70.2135 43.459V43.3829C70.2135 41.8986 69.1276 40.6806 67.6538 40.4523C63.1936 39.7672 52.179 38.5112 46.5553 41.7843C44.461 43.0023 43.1423 43.8015 42.3666 44.2963C40.6988 45.3239 40.6988 45.3239 38.527 45.8948L38.2167 45.971C33.5238 47.0747 31.0029 50.5381 31.3519 55.4098C31.4683 57.2366 33.0196 58.6448 34.8813 58.6448H37.4798C38.2555 59.8627 39.6517 60.6239 41.1255 60.6239C42.5993 60.6239 43.9955 59.8627 44.7712 58.6448H59.9358C60.7114 59.8627 62.1077 60.6239 63.5815 60.6239C65.0553 60.6239 66.4515 59.8627 67.2272 58.6448H70.4463H70.6014C70.9504 58.6067 72.6182 58.4926 73.0836 60.8903C73.2775 61.8799 72.5406 64.0874 70.4851 66.4851C68.6622 68.6545 63.4264 73.6403 54.1569 73.6403C42.0951 73.6403 28.9085 66.5231 28.5207 50.8806C28.2104 42.7359 33.2523 34.4389 40.9704 30.2903C46.1287 27.4739 56.9882 24.2008 71.4935 33.6777C71.7649 33.8679 72.0752 33.906 72.3854 33.8679C72.6957 33.7918 72.9673 33.6396 73.1611 33.3731C73.355 33.1067 73.3938 32.8023 73.355 32.4978C73.2775 32.1933 73.1224 31.9269 72.8509 31.7366C57.2597 21.5366 45.4693 25.1523 39.8069 28.1971C31.3131 32.8023 25.767 41.9366 25.9997 50.9567C26.1936 58.759 29.3739 65.3053 35.1915 69.8343C40.2335 73.8306 46.9432 76 54.0794 76C64.3184 76 70.1748 70.4053 72.2304 68.0075C74.5186 65.3053 75.7209 62.4127 75.3719 60.4717ZM65.4431 56.4374C65.4431 57.465 64.5898 58.3023 63.5427 58.3023C62.4955 58.3023 61.6423 57.465 61.6423 56.4374C61.6423 55.4098 62.4955 54.5724 63.5427 54.5724C64.5898 54.5724 65.4431 55.4098 65.4431 56.4374ZM42.9484 56.4374C42.9484 57.4269 42.1339 58.2262 41.1255 58.2262C40.1171 58.2262 39.3026 57.4269 39.3026 56.4374C39.3026 55.4478 40.1171 54.6486 41.1255 54.6486C42.1339 54.6486 42.9484 55.4478 42.9484 56.4374Z" fill="#010101"/>
<path d="M49.3869 44.9813C47.7967 45.8567 46.5168 46.694 45.5472 47.4552C45.1206 47.7977 45.0042 48.3306 45.1594 48.8253C45.3145 49.2821 45.7799 49.6247 46.2453 49.6247H60.3627C61.2548 49.6247 61.9917 48.8635 61.9917 47.912V45.5523C61.9917 44.6769 61.3711 43.9537 60.5566 43.8396C58.2683 43.5732 52.6446 43.1925 49.3869 44.9813ZM60.6342 47.912C60.6342 48.1403 60.5178 48.2925 60.4015 48.2925H46.7107C47.37 47.7977 48.456 47.0365 50.085 46.1612C53.0325 44.5247 58.7338 45.0194 60.4403 45.2097C60.5566 45.2097 60.673 45.362 60.673 45.5903V47.912H60.6342Z" fill="#010101"/>
<path d="M94.2598 58.7589L92.243 45.8567H92.1267L85.6109 58.7589H80.9956L78.7461 41.3657H82.6634L84.0208 54.6104H84.0984L90.6916 41.3657H95.2682L97.1685 54.6104H97.2461L103.258 41.3657H107.252L98.8751 58.7589H94.2598Z" fill="#010101"/>
<path d="M113.652 59.2537C109.308 59.2537 106.632 56.932 106.632 52.5932C106.632 48.6731 107.912 44.7529 110.743 42.5836C112.294 41.3656 114.195 40.8708 116.328 40.8708C118.577 40.8708 120.556 41.5559 121.836 42.7739C123.116 43.9156 123.62 45.3619 123.62 47.0746C123.62 48.2164 123.387 49.5865 123.077 50.8805H110.627C110.549 51.3373 110.51 51.832 110.51 52.3268C110.51 55.0291 112.178 56.2851 115.204 56.2851C117.22 56.2851 119.819 55.7903 122.068 55.2955L121.564 58.1119C119.12 58.6828 116.29 59.2537 113.652 59.2537ZM119.819 47.0365C119.819 44.6007 118.189 43.4208 116.018 43.4208C113.07 43.4208 111.596 45.6283 111.053 48.3687H119.702C119.78 47.9119 119.819 47.4552 119.819 47.0365Z" fill="#010101"/>
<path d="M141.925 57.5791C140.413 58.759 138.513 59.2538 135.953 59.2538C134.246 59.2538 132.385 58.8731 130.756 58.1881L130.678 58.759H126.838V34.0202H132.152V42.0888C133.936 41.4799 135.953 40.871 137.737 40.871C139.754 40.871 141.421 41.4799 142.701 42.7359C144.369 44.3724 144.99 46.8463 144.99 50.0434C144.951 53.4687 143.787 56.1328 141.925 57.5791ZM135.836 45.1717C134.75 45.1717 133.393 45.5523 132.152 46.009V54.7627C133.082 55.1814 134.169 55.3717 135.099 55.3717C138.009 55.3717 139.56 53.7732 139.56 50.2336C139.56 46.694 138.28 45.1717 135.836 45.1717Z" fill="#F48420"/>
<path d="M160.193 58.759L160.038 57.8455C157.866 58.6067 155.811 59.2157 153.716 59.2157C151.932 59.2157 150.07 58.6828 148.752 57.2366C147.55 55.9425 147.239 54.306 147.239 52.1747V41.3657H152.552V51.8321C152.552 54.1918 153.832 54.9911 155.694 54.9911C156.78 54.9911 157.982 54.6485 159.378 54.1157V41.3657H164.653V58.759H160.193Z" fill="#F48420"/>
<path d="M167.135 65.3433V61.309C168.376 61.4992 169.501 61.5373 170.432 61.5373C172.564 61.5373 173.379 60.7381 173.844 59.444L174.077 58.759L166.359 41.3657H172.177L176.792 52.9359H176.909L180.515 41.3657H185.79L179.314 59.7104C177.84 63.9351 175.667 65.6097 170.975 65.6097C169.85 65.6097 168.337 65.4955 167.135 65.3433Z" fill="#F48420"/>
<path d="M192.733 59.2537C188.931 59.2537 186.256 57.0843 186.256 52.6693C186.256 48.8634 187.419 44.6388 190.716 42.4313C192.539 41.1753 194.594 40.8708 196.766 40.8708C198.24 40.8708 199.791 40.9851 201.304 41.1373L200.761 44.182C199.52 43.9917 198.24 43.9156 196.96 43.9156C192.073 43.9156 190.289 47.6455 190.289 52.0985C190.289 54.2299 191.22 56.1708 194.245 56.1708C195.913 56.1708 198.123 55.638 199.714 55.2193L199.171 58.15C197.27 58.7208 194.866 59.2537 192.733 59.2537Z" fill="#010101"/>
<path d="M213.715 58.7589L213.831 57.8455C211.621 58.5306 209.682 59.2537 207.548 59.2537C204.252 59.2537 202.119 57.503 202.119 54.4582C202.119 51.1089 204.329 48.3686 209.565 48.3686C211.311 48.3686 213.094 48.4448 214.956 48.597L215.111 47.912C215.189 47.4172 215.266 46.9985 215.266 46.6179C215.266 44.2582 212.823 43.8396 209.992 43.8396C208.634 43.8396 207.005 43.9537 205.725 44.106L206.268 41.2134C207.587 41.0232 209.449 40.9089 211.233 40.9089C214.762 40.9089 219.184 41.7463 219.184 45.7045C219.184 46.5798 219.029 47.5313 218.873 48.597L217.012 58.797H213.715V58.7589ZM214.49 51.1089C213.094 50.9567 211.582 50.8806 209.992 50.8806C207.315 50.8806 205.88 51.9463 205.88 54.1157C205.88 55.562 206.811 56.4753 208.789 56.4753C210.263 56.4753 211.97 55.9806 213.715 55.4858L214.49 51.1089Z" fill="#010101"/>
<path d="M220.773 58.7589L223.915 41.3656H227.134L227.018 42.4694C229.694 41.4417 231.517 40.8708 233.611 40.8708C233.766 40.8708 233.96 40.8708 234.154 40.8708L233.572 44.2201C233.223 44.182 232.758 44.182 232.486 44.182C230.896 44.182 229.383 44.4485 227.057 45.2858L224.652 58.7589H220.773Z" fill="#010101"/>
<path d="M244.548 58.0358C242.919 59.0253 240.98 59.2537 238.808 59.2537C237.218 59.2537 235.279 59.1015 233.417 58.9492L233.96 56.0187C235.24 56.2089 237.218 56.3612 238.653 56.3612C240.049 56.3612 241.135 56.3231 242.066 55.9425C242.958 55.6 243.424 54.9149 243.424 53.8492C243.424 52.8597 242.881 52.2127 241.833 51.832C240.941 51.5276 240.01 51.2992 239.041 50.9567C236.713 50.2716 235.163 49.0537 235.163 46.732C235.163 44.4865 236.094 42.6216 238.226 41.6701C239.506 41.0992 241.213 40.8708 242.919 40.8708C244.625 40.8708 246.177 41.0231 248 41.1373L247.457 44.0299C246.138 43.8395 244.587 43.6873 242.958 43.6873C241.911 43.6873 241.058 43.7253 240.282 43.9917C239.351 44.2963 238.847 45.0193 238.847 46.047C238.847 46.9985 239.506 47.4171 240.515 47.7977C241.174 48.0261 242.066 48.2925 243.191 48.6351C245.401 49.3582 247.108 50.5 247.108 53.3164C247.147 55.5239 246.138 57.1604 244.548 58.0358Z" fill="#010101"/>
</g>
</g>
</g>
<defs>
<filter id="filter0_d_359_423" x="0" y="0" width="273" height="109" filterUnits="userSpaceOnUse" color-interpolation-filters="sRGB">
<feFlood flood-opacity="0" result="BackgroundImageFix"/>
<feColorMatrix in="SourceAlpha" type="matrix" values="0 0 0 0 0 0 0 0 0 0 0 0 0 0 0 0 0 0 127 0" result="hardAlpha"/>
<feOffset dy="4"/>
<feGaussianBlur stdDeviation="2"/>
<feComposite in2="hardAlpha" operator="out"/>
<feColorMatrix type="matrix" values="0 0 0 0 0 0 0 0 0 0 0 0 0 0 0 0 0 0 0.25 0"/>
<feBlend mode="normal" in2="BackgroundImageFix" result="effect1_dropShadow_359_423"/>
<feBlend mode="normal" in="SourceGraphic" in2="effect1_dropShadow_359_423" result="shape"/>
</filter>
<clipPath id="clip0_359_423">
<rect width="222" height="51" fill="white" transform="translate(26 25)"/>
</clipPath>
</defs>
</svg>
