<svg width="273" height="109" viewBox="0 0 273 109" fill="none" xmlns="http://www.w3.org/2000/svg">
<g filter="url(#filter0_d_380_435)">
<rect x="4" width="265" height="101" rx="10" fill="white"/>
<path d="M24.3472 40.2056H18V39.7942H32.4378V40.2056H26.0907V59.7368H24.3472V40.2056Z" fill="#333333"/>
<path d="M35.5135 39.7942H37.2767V49.3541H49.6771V39.7942H51.4402V59.7368H49.6771V49.7655H37.2962V59.7368H35.5331V39.7942H35.5135Z" fill="#333333"/>
<path d="M55.1622 39.7942H66.1326V40.2056H56.9253V49.3541H64.7026V49.7655H56.9253V59.3254H66.1326V59.7368H55.1622V39.7942Z" fill="#333333"/>
<path d="M75.6534 57.1902C75.7122 57.2685 75.7906 57.3469 75.9081 57.4448C76.0257 57.5428 76.2607 57.7387 76.6329 58.0129C77.0052 58.2872 77.397 58.5223 77.7888 58.7378C78.1806 58.9337 78.6899 59.1296 79.3168 59.3059C79.9437 59.4822 80.5509 59.5605 81.1778 59.5605C82.5491 59.5605 83.7245 59.1883 84.704 58.4439C85.6835 57.6995 86.1537 56.7592 86.1537 55.6034C86.1537 55.1528 86.0753 54.7218 85.899 54.2908C85.7423 53.8794 85.5268 53.5072 85.2917 53.1742C85.0566 52.8608 84.704 52.5081 84.2535 52.1163C83.8029 51.7245 83.3915 51.4111 83.0389 51.1564C82.6863 50.9018 82.1965 50.5687 81.55 50.1378C81.3737 50.0006 81.0799 49.8243 80.7077 49.5892C80.3355 49.3542 80.0416 49.1582 79.8457 49.0211C79.6498 48.884 79.3755 48.6881 79.0425 48.453C78.7095 48.2179 78.4352 48.0024 78.2589 47.8457C78.063 47.6694 77.8475 47.4735 77.5929 47.2188C77.3382 46.9642 77.1423 46.7487 76.9856 46.5136C76.8288 46.2785 76.6917 46.0434 76.5546 45.7692C76.4175 45.4949 76.3195 45.2207 76.2411 44.9268C76.1824 44.633 76.1432 44.3391 76.1432 44.0257C76.1432 43.3008 76.3195 42.6544 76.6329 42.0667C76.966 41.479 77.3969 41.0088 77.9455 40.6562C78.494 40.3036 79.0817 40.0293 79.7478 39.853C80.4138 39.6571 81.0799 39.5787 81.7851 39.5787C82.412 39.5787 83.0389 39.6571 83.6853 39.7942C84.3122 39.9314 84.802 40.0685 85.1154 40.2056L85.5856 40.4211V41.3222C85.5464 41.2831 85.468 41.2243 85.3897 41.1655C85.3113 41.1068 85.135 41.0088 84.8607 40.8521C84.5865 40.715 84.3122 40.5778 84.038 40.4603C83.7637 40.3427 83.4111 40.2448 82.9801 40.1468C82.5687 40.0489 82.1377 40.0097 81.7263 40.0097C81.0015 40.0097 80.3159 40.1273 79.6498 40.3819C78.9837 40.6366 78.4352 41.0284 77.9847 41.5573C77.5341 42.0863 77.299 42.6935 77.299 43.3792C77.299 43.6535 77.3382 43.9277 77.4361 44.202C77.5341 44.4762 77.632 44.6917 77.73 44.9072C77.8475 45.1227 78.0238 45.3382 78.2981 45.5929C78.5528 45.8475 78.7878 46.0434 78.9642 46.2002C79.1405 46.3569 79.4343 46.5724 79.8261 46.827C80.2179 47.0817 80.5314 47.2972 80.7468 47.4147C80.9623 47.5323 81.315 47.7478 81.8047 48.0416C82.5491 48.4922 83.1564 48.8644 83.6266 49.1778C84.0967 49.4913 84.6061 49.8635 85.1742 50.3337C85.7423 50.8038 86.1733 51.2348 86.4867 51.6462C86.8002 52.0576 87.0744 52.5473 87.2703 53.0958C87.4858 53.6444 87.6033 54.2321 87.6033 54.8198C87.6033 55.5642 87.4662 56.2302 87.192 56.8375C86.9177 57.4448 86.5651 57.9346 86.1341 58.3264C85.7031 58.7182 85.1938 59.0512 84.6061 59.3059C84.0184 59.5605 83.4503 59.7564 82.8626 59.874C82.2749 59.9915 81.6872 60.0503 81.0995 60.0503C80.4726 60.0503 79.8653 59.9915 79.258 59.874C78.6507 59.7564 78.1414 59.5997 77.73 59.4234C77.3186 59.2471 76.9464 59.0708 76.6134 58.8945C76.2803 58.7182 76.0452 58.5615 75.8885 58.4439L75.6534 58.2676V57.1902Z" fill="#333333"/>
<path d="M90.6397 39.7942H95.6548C96.5951 39.7942 97.4962 39.9117 98.2994 40.1272C99.1222 40.3427 99.847 40.6757 100.493 41.0871C101.14 41.5181 101.649 42.0862 102.022 42.7915C102.394 43.4967 102.57 44.2999 102.57 45.201C102.57 46.396 102.237 47.4147 101.591 48.2375C100.944 49.0603 100.102 49.6676 99.083 50.0398C98.0643 50.412 96.9085 50.6079 95.6352 50.6079H92.3832V59.7564H90.6201V39.7942H90.6397ZM95.4001 50.1769C97.1436 50.1769 98.4561 49.7459 99.3377 48.9035C100.219 48.0612 100.67 46.827 100.67 45.201C100.67 43.5751 100.219 42.3409 99.3377 41.4789C98.4561 40.617 97.1436 40.2056 95.4001 40.2056H92.4028V50.1769H95.4001Z" fill="#333333"/>
<path d="M105.979 44.5153C106.919 42.9285 108.192 41.6748 109.818 40.7736C111.425 39.8529 113.188 39.4023 115.108 39.4023C116.538 39.4023 117.909 39.6766 119.222 40.2055C120.515 40.7345 121.631 41.4593 122.572 42.38C123.512 43.3008 124.256 44.3978 124.805 45.6711C125.353 46.9445 125.628 48.3158 125.628 49.7459C125.628 51.2151 125.353 52.5864 124.805 53.8794C124.256 55.1723 123.512 56.2693 122.572 57.1705C121.631 58.0716 120.515 58.7769 119.222 59.3058C117.929 59.8347 116.557 60.0894 115.108 60.0894C113.658 60.0894 112.306 59.8347 110.994 59.3058C109.701 58.7769 108.584 58.0716 107.624 57.1705C106.664 56.2693 105.94 55.1723 105.371 53.8794C104.803 52.5864 104.549 51.2151 104.549 49.7459C104.568 47.8652 105.038 46.1021 105.979 44.5153ZM107.683 54.8197C108.428 56.3477 109.446 57.5231 110.759 58.4047C112.071 59.2862 113.521 59.7172 115.108 59.7172C116.714 59.7172 118.164 59.2862 119.457 58.4047C120.769 57.5427 121.788 56.3477 122.532 54.8197C123.277 53.2917 123.649 51.6265 123.649 49.7655C123.649 48.3942 123.433 47.0816 122.983 45.8475C122.532 44.6133 121.945 43.5554 121.2 42.6739C120.456 41.7923 119.535 41.0871 118.477 40.5777C117.419 40.0684 116.283 39.8137 115.108 39.8137C113.932 39.8137 112.796 40.0684 111.738 40.5777C110.68 41.0871 109.779 41.7923 109.015 42.6739C108.251 43.5554 107.664 44.6133 107.213 45.8475C106.762 47.0816 106.547 48.3746 106.547 49.7655C106.566 51.6069 106.939 53.2917 107.683 54.8197Z" fill="#333333"/>
<path d="M127.116 57.1902C127.175 57.2685 127.253 57.3469 127.371 57.4448C127.489 57.5428 127.724 57.7387 128.096 58.0129C128.468 58.2872 128.86 58.5223 129.252 58.7378C129.643 58.9337 130.153 59.1296 130.78 59.3059C131.407 59.4822 132.014 59.5605 132.641 59.5605C134.012 59.5605 135.187 59.1883 136.167 58.4439C137.146 57.6995 137.617 56.7592 137.617 55.6034C137.617 55.1528 137.538 54.7218 137.362 54.2908C137.205 53.8794 136.99 53.5072 136.755 53.1742C136.52 52.8608 136.167 52.5081 135.716 52.1163C135.266 51.7245 134.854 51.4111 134.502 51.1564C134.149 50.9018 133.659 50.5687 133.013 50.1378C132.837 50.0006 132.543 49.8243 132.171 49.5892C131.798 49.3542 131.504 49.1582 131.309 49.0211C131.113 48.884 130.838 48.6881 130.505 48.453C130.172 48.2179 129.898 48.0024 129.722 47.8457C129.526 47.6694 129.31 47.4735 129.056 47.2188C128.801 46.9642 128.605 46.7487 128.448 46.5136C128.292 46.2785 128.155 46.0434 128.017 45.7692C127.88 45.4949 127.782 45.2207 127.704 44.9268C127.645 44.633 127.606 44.3391 127.606 44.0257C127.606 43.3008 127.782 42.6544 128.096 42.0667C128.429 41.479 128.86 41.0088 129.408 40.6562C129.957 40.3036 130.545 40.0293 131.211 39.853C131.877 39.6571 132.543 39.5787 133.248 39.5787C133.875 39.5787 134.502 39.6571 135.148 39.7942C135.775 39.9314 136.265 40.0685 136.598 40.2056L137.068 40.4211V41.3222C137.029 41.2831 136.951 41.2243 136.872 41.1655C136.794 41.1068 136.617 41.0088 136.343 40.8521C136.069 40.715 135.795 40.5778 135.52 40.4603C135.246 40.3427 134.894 40.2448 134.463 40.1468C134.051 40.0489 133.62 40.0097 133.209 40.0097C132.484 40.0097 131.798 40.1273 131.132 40.3819C130.466 40.6366 129.918 41.0284 129.467 41.5573C129.017 42.0863 128.781 42.6935 128.781 43.3792C128.781 43.6535 128.821 43.9277 128.919 44.202C129.017 44.4762 129.115 44.6917 129.212 44.9072C129.33 45.1227 129.506 45.3382 129.781 45.5929C130.035 45.8475 130.27 46.0434 130.447 46.2002C130.623 46.3569 130.917 46.5724 131.309 46.827C131.7 47.0817 132.014 47.2972 132.229 47.4147C132.445 47.5323 132.797 47.7478 133.287 48.0416C134.032 48.4922 134.639 48.8644 135.109 49.1778C135.579 49.4913 136.089 49.8635 136.657 50.3337C137.225 50.8038 137.656 51.2348 137.969 51.6462C138.283 52.0576 138.557 52.5473 138.753 53.0958C138.968 53.6444 139.086 54.2321 139.086 54.8198C139.086 55.5642 138.949 56.2302 138.674 56.8375C138.4 57.4448 138.048 57.9346 137.617 58.3264C137.186 58.7182 136.676 59.0512 136.089 59.3059C135.501 59.5605 134.933 59.7564 134.345 59.874C133.757 59.9915 133.17 60.0503 132.582 60.0503C131.955 60.0503 131.348 59.9915 130.74 59.874C130.133 59.7564 129.624 59.5997 129.212 59.4234C128.801 59.2471 128.429 59.0708 128.096 58.8945C127.763 58.7182 127.528 58.5615 127.371 58.4439L127.136 58.2676V57.1902H127.116Z" fill="#333333"/>
<path d="M148.43 39.2849L156.462 59.7565H154.621L152.172 53.5073H143.278L140.849 59.7369H140.398L148.43 39.2849ZM152.015 53.0959L147.745 42.2038L143.454 53.0959H152.015Z" fill="#333333"/>
<path d="M183.614 57.9346C181.577 59.3842 179.03 60.1286 175.954 60.1286C174.034 60.1286 172.252 59.6781 170.645 58.7769C169.039 57.8758 167.746 56.622 166.806 55.0352C165.865 53.4484 165.395 51.6853 165.395 49.7655C165.395 48.3355 165.67 46.9642 166.218 45.6908C166.767 44.4174 167.511 43.3008 168.471 42.3997C169.431 41.4985 170.547 40.7541 171.84 40.2252C173.133 39.6963 174.505 39.422 175.954 39.422C178.462 39.422 180.636 39.9705 182.517 41.0676V42.1058C181.714 41.381 180.715 40.8129 179.559 40.4211C178.403 40.0293 177.208 39.8334 175.954 39.8334C174.387 39.8334 172.957 40.2644 171.644 41.1459C170.332 42.0079 169.294 43.2225 168.53 44.7309C167.766 46.2589 167.393 47.9437 167.393 49.7851C167.393 51.6266 167.766 53.3113 168.53 54.8393C169.294 56.3674 170.332 57.5623 171.644 58.4243C172.957 59.2863 174.387 59.7172 175.954 59.7172C177.247 59.7172 178.364 59.5801 179.304 59.3059C180.225 59.0316 181.087 58.6398 181.89 58.1109V49.5696H183.634V57.9346H183.614Z" fill="#333333"/>
<path d="M187.317 39.7942H192.567C193.507 39.7942 194.408 39.9117 195.211 40.1272C196.034 40.3427 196.759 40.6757 197.405 41.0871C198.052 41.5181 198.561 42.0862 198.933 42.7915C199.306 43.4967 199.482 44.2999 199.482 45.201C199.482 46.396 199.149 47.4147 198.502 48.2375C197.856 49.0603 197.014 49.6676 195.995 50.0398C194.976 50.412 193.82 50.6079 192.547 50.6079H189.256L200.932 59.7564H200.285L189.08 50.9605V59.7368H187.317V39.7942ZM192.312 50.1769C194.055 50.1769 195.368 49.7459 196.25 48.9035C197.131 48.0612 197.582 46.827 197.582 45.201C197.582 43.5751 197.131 42.3409 196.25 41.4789C195.368 40.6366 194.055 40.2056 192.312 40.2056H189.099V50.1769H192.312Z" fill="#333333"/>
<path d="M202.988 44.5154C203.929 42.9286 205.202 41.6748 206.828 40.7737C208.435 39.8726 210.217 39.422 212.137 39.422C213.567 39.422 214.938 39.6963 216.251 40.2252C217.544 40.7541 218.66 41.4789 219.601 42.3997C220.541 43.3204 221.286 44.4174 221.834 45.6908C222.383 46.9642 222.657 48.3355 222.657 49.7655C222.657 51.2348 222.383 52.6061 221.834 53.899C221.286 55.192 220.541 56.289 219.601 57.1901C218.66 58.0913 217.544 58.7965 216.251 59.3254C214.958 59.8544 213.587 60.109 212.137 60.109C210.687 60.109 209.336 59.8544 208.023 59.3254C206.73 58.7965 205.614 58.0913 204.654 57.1901C203.694 56.289 202.969 55.192 202.401 53.899C201.833 52.6061 201.578 51.2348 201.578 49.7655C201.578 47.8653 202.048 46.1022 202.988 44.5154ZM204.693 54.8197C205.437 56.3478 206.456 57.5232 207.768 58.4047C209.081 59.2863 210.531 59.7172 212.117 59.7172C213.724 59.7172 215.173 59.2863 216.466 58.4047C217.779 57.5428 218.798 56.3478 219.542 54.8197C220.286 53.2917 220.659 51.6266 220.659 49.7655C220.659 48.3942 220.443 47.0817 219.993 45.8475C219.542 44.6134 218.954 43.5555 218.21 42.6739C217.466 41.7924 216.545 41.0871 215.487 40.5778C214.429 40.0685 213.293 39.8138 212.117 39.8138C210.942 39.8138 209.806 40.0685 208.748 40.5778C207.69 41.0871 206.789 41.7924 206.025 42.6739C205.261 43.5555 204.673 44.6134 204.223 45.8475C203.772 47.0817 203.557 48.3746 203.557 49.7655C203.576 51.607 203.948 53.2917 204.693 54.8197Z" fill="#333333"/>
<path d="M239.622 51.6461C239.622 53.1546 239.485 54.4279 239.21 55.4858C238.936 56.5436 238.427 57.4644 237.663 58.2676C236.546 59.4822 234.959 60.0699 232.902 60.0699C230.708 60.0699 228.984 59.4822 227.75 58.2872C226.869 57.4448 226.261 56.4065 225.928 55.2115C225.595 54.0165 225.439 52.3906 225.439 50.3336V39.7942H227.202V50.9213C227.202 52.7628 227.3 54.1928 227.496 55.2115C227.691 56.2302 228.064 57.0726 228.573 57.7386C229.572 59.0316 231.022 59.6781 232.883 59.6781C234.763 59.6781 236.233 59.1295 237.31 58.0129C238.035 57.2685 238.525 56.3673 238.779 55.3095C239.034 54.2516 239.171 53.0174 239.171 51.607V39.7942H239.602V51.6461H239.622Z" fill="#333333"/>
<path d="M243.07 39.7942H248.085C249.025 39.7942 249.926 39.9117 250.729 40.1272C251.552 40.3427 252.277 40.6757 252.923 41.0871C253.57 41.5181 254.079 42.0862 254.451 42.7915C254.824 43.4967 255 44.2999 255 45.201C255 46.396 254.667 47.4147 254.02 48.2375C253.374 49.0603 252.532 49.6676 251.513 50.0398C250.494 50.412 249.338 50.6079 248.065 50.6079H244.813V59.7564H243.05L243.07 39.7942ZM247.83 50.1769C249.574 50.1769 250.886 49.7459 251.768 48.9035C252.649 48.0612 253.1 46.827 253.1 45.201C253.1 43.5751 252.649 42.3409 251.768 41.4789C250.886 40.617 249.574 40.2056 247.83 40.2056H244.833V50.1769H247.83Z" fill="#333333"/>
</g>
<defs>
<filter id="filter0_d_380_435" x="0" y="0" width="273" height="109" filterUnits="userSpaceOnUse" color-interpolation-filters="sRGB">
<feFlood flood-opacity="0" result="BackgroundImageFix"/>
<feColorMatrix in="SourceAlpha" type="matrix" values="0 0 0 0 0 0 0 0 0 0 0 0 0 0 0 0 0 0 127 0" result="hardAlpha"/>
<feOffset dy="4"/>
<feGaussianBlur stdDeviation="2"/>
<feComposite in2="hardAlpha" operator="out"/>
<feColorMatrix type="matrix" values="0 0 0 0 0 0 0 0 0 0 0 0 0 0 0 0 0 0 0.25 0"/>
<feBlend mode="normal" in2="BackgroundImageFix" result="effect1_dropShadow_380_435"/>
<feBlend mode="normal" in="SourceGraphic" in2="effect1_dropShadow_380_435" result="shape"/>
</filter>
</defs>
</svg>
