<svg width="273" height="109" viewBox="0 0 273 109" fill="none" xmlns="http://www.w3.org/2000/svg">
<g filter="url(#filter0_d_359_393)">
<rect x="4" width="265" height="101" rx="10" fill="white"/>
<g clip-path="url(#clip0_359_393)">
<path d="M232.265 30H34V70H232.265V30Z" fill="#1966AF"/>
<path d="M240 30H233.486V70H240V30Z" fill="#ED1C24"/>
<path d="M47.7198 60.625V44.8333H44.3V39.4583H56.9206V44.8333H53.5008V60.625H47.7198ZM57.6534 39.5H63.4344V47.0833H65.8771V39.5H71.6581V60.625H65.8771V52.3333H63.3937V60.625H57.6127V39.5H57.6534ZM72.8795 39.5H83.1388V44.625H78.6605V47.3333H82.691V52.2916H78.6605V55.2083H83.1388V60.6666H72.8795V39.5ZM106.019 50.2083C106.019 57.5416 103.739 61.0416 98.772 61.0416C93.8052 61.0416 91.0368 57.1666 91.0368 50.0833C91.0368 43 93.8866 39.0833 98.8941 39.0833C103.902 39.0833 104.634 40.7083 105.774 44.25L100.767 46C100.319 44.5833 99.7898 43.9166 98.8127 43.9166C97.2249 43.9166 96.8585 45.8333 96.8585 49.8333C96.8585 53.8333 97.225 55.6666 98.772 55.6666C100.319 55.6666 100.36 54.75 100.36 52.9166V52.625H98.6499V48.3333H105.937C105.937 49 105.978 49.625 105.978 50.25L106.019 50.2083ZM114.731 39.0833C119.576 39.0833 122.425 43 122.425 50.0833C122.425 57.1666 119.576 61.0416 114.731 61.0416C109.886 61.0416 106.996 57.1666 106.996 50.0833C106.996 43 109.886 39.0833 114.731 39.0833ZM114.731 55.6666C116.278 55.6666 116.604 53.875 116.604 49.9583C116.604 46.0416 116.278 44.25 114.731 44.25C113.184 44.25 112.817 46.0416 112.817 49.9583C112.817 53.875 113.184 55.6666 114.731 55.6666ZM131.219 39.0833C136.064 39.0833 138.913 43 138.913 50.0833C138.913 57.1666 136.064 61.0416 131.219 61.0416C126.374 61.0416 123.484 57.1666 123.484 50.0833C123.484 43 126.374 39.0833 131.219 39.0833ZM131.219 55.6666C132.766 55.6666 133.092 53.875 133.092 49.9583C133.092 46.0416 132.766 44.25 131.219 44.25C129.672 44.25 129.306 46.0416 129.306 49.9583C129.306 53.9166 129.672 55.6666 131.219 55.6666ZM144.369 39.5C147.748 39.5 149.987 39.8333 152.063 42.0833C153.529 43.75 154.343 46.4583 154.343 50.0833C154.343 57.0833 151.371 60.625 145.631 60.625H140.053V39.5H144.328H144.369ZM145.834 55.2916H146.079C147.992 55.2916 148.481 53.625 148.481 49.9583C148.481 46.2916 148.033 44.5416 146.038 44.5416H145.834V55.2916ZM176.816 50.2083C176.816 57.5416 174.536 61.0416 169.569 61.0416C164.602 61.0416 161.834 57.1666 161.834 50.0833C161.834 43 164.684 39.0833 169.691 39.0833C174.699 39.0833 175.432 40.7083 176.572 44.25L171.564 46C171.116 44.5833 170.587 43.9166 169.61 43.9166C168.022 43.9166 167.656 45.8333 167.656 49.8333C167.656 53.8333 168.022 55.6666 169.569 55.6666C171.116 55.6666 171.157 54.75 171.157 52.9166V52.625H169.447V48.3333H176.734C176.734 49 176.775 49.625 176.775 50.25L176.816 50.2083ZM177.752 39.5H183.533V53.625C183.533 54.8333 183.94 55.4166 184.877 55.4166C185.813 55.4166 186.22 54.8333 186.22 53.625V39.5H192.001V53.0833C192.001 58.5833 189.844 61.0416 184.877 61.0416C179.91 61.0416 177.793 58.5416 177.793 53.0833V39.5H177.752ZM198.189 39.5L199.736 46L201.283 39.5H207.349L202.586 52.1666V60.6666H196.846V52.1666L192.083 39.5H198.149H198.189ZM210.484 55.6666C211.461 55.6666 212.072 55 212.072 54.1666C212.072 53.3333 211.421 52.7916 210.525 51.9166C208.082 49.5833 206.454 47.9583 206.454 45.2083C206.454 42.4583 209.019 39.0833 212.805 39.0833C216.591 39.0833 215.817 39.5 217.487 40.2916V45.7916C216.102 44.6666 214.881 44.0833 213.904 44.0833C212.927 44.0833 212.438 44.625 212.438 45.375C212.438 46.125 213.13 46.75 214.108 47.5C216.713 49.625 218.219 51.0833 218.219 54.2083C218.219 57.3333 215.451 61.0416 211.217 61.0416C206.983 61.0416 208.042 60.5 206.413 59.4583V53.625C208.123 55 209.507 55.6666 210.484 55.6666ZM221.517 40.5C221.883 40.875 222.046 41.3333 222.046 41.875C222.046 42.4166 221.843 42.9166 221.476 43.25C221.11 43.625 220.621 43.8333 220.133 43.8333C219.644 43.8333 219.156 43.625 218.789 43.25C218.423 42.875 218.219 42.375 218.219 41.875C218.219 41.375 218.423 40.8333 218.789 40.4583C219.156 40.0833 219.604 39.9166 220.133 39.9166C220.662 39.9166 221.151 40.125 221.517 40.5ZM219.034 40.7083C218.708 41.0416 218.545 41.4166 218.545 41.875C218.545 42.3333 218.708 42.6666 218.993 43C219.278 43.3333 219.685 43.5 220.092 43.5C220.499 43.5 220.906 43.3333 221.191 43.0416C221.476 42.75 221.639 42.3333 221.639 41.9166C221.639 41.5 221.476 41.0833 221.191 40.7916C220.906 40.4583 220.499 40.2916 220.051 40.2916C219.644 40.2916 219.237 40.4583 218.952 40.75L219.034 40.7083ZM220.174 40.7083C220.784 40.7083 221.069 40.9166 221.069 41.3333C221.069 41.75 220.906 41.8333 220.621 41.9166L221.11 42.875H220.459L220.051 42H219.889V42.875H219.319V40.7083H220.174ZM219.889 41.6666H220.092C220.336 41.6666 220.459 41.5833 220.459 41.375C220.459 41.1666 220.336 41.0833 220.051 41.0833H219.889V41.6666Z" fill="white"/>
</g>
</g>
<defs>
<filter id="filter0_d_359_393" x="0" y="0" width="273" height="109" filterUnits="userSpaceOnUse" color-interpolation-filters="sRGB">
<feFlood flood-opacity="0" result="BackgroundImageFix"/>
<feColorMatrix in="SourceAlpha" type="matrix" values="0 0 0 0 0 0 0 0 0 0 0 0 0 0 0 0 0 0 127 0" result="hardAlpha"/>
<feOffset dy="4"/>
<feGaussianBlur stdDeviation="2"/>
<feComposite in2="hardAlpha" operator="out"/>
<feColorMatrix type="matrix" values="0 0 0 0 0 0 0 0 0 0 0 0 0 0 0 0 0 0 0.25 0"/>
<feBlend mode="normal" in2="BackgroundImageFix" result="effect1_dropShadow_359_393"/>
<feBlend mode="normal" in="SourceGraphic" in2="effect1_dropShadow_359_393" result="shape"/>
</filter>
<clipPath id="clip0_359_393">
<rect width="206" height="40" fill="white" transform="translate(34 30)"/>
</clipPath>
</defs>
</svg>
